# xmcd CD database file
#
# Track frame offsets:
#	150
#	59743
#	124655
#	163323
#	206645
#
# Disc length: 3872 seconds
#
# Revision: 1
# Processed by: cddbd v1.5.2PL0 Copyright (c) Steve Scherf et al.
# Submitted via: CDex 1.51
#
DISCID=4b0f1e05
DTITLE=Esbjörn Svensson Trio - Live in Hamburg 2006 - Disk 1
DYEAR=2006
DGENRE=Jazz
TTITLE0=Tuesday wonderland
TTITLE1=The rube thing
TTITLE2=Where we used to live
TTITLE3=Eighthundred streets by feet
TTITLE4=Definition of a dog
EXTD=YEAR: 2006
EXTT0=
EXTT1=
EXTT2=
EXTT3=
EXTT4=
PLAYORDER=
